<svg width="107" height="107" viewBox="0 0 107 107" fill="none" xmlns="http://www.w3.org/2000/svg">
<path d="M49.5 2.3094C51.9752 0.880338 55.0248 0.880339 57.5 2.3094L95.8324 24.4406C98.3076 25.8697 99.8324 28.5107 99.8324 31.3688V75.6312C99.8324 78.4893 98.3076 81.1303 95.8324 82.5594L57.5 104.691C55.0248 106.12 51.9752 106.12 49.5 104.691L11.1676 82.5594C8.69243 81.1303 7.16764 78.4893 7.16764 75.6312V31.3688C7.16764 28.5107 8.69243 25.8697 11.1676 24.4406L49.5 2.3094Z" fill="#E2EAEA"/>
<path d="M53.5206 23V38.25V53.5M53.5206 23C44.6804 24.2708 27 29.1 27 38.25C27 49.84 44.6804 53.2458 53.5206 53.5M53.5206 23C71.7275 23.5 111.5 56.5 53.5206 84M53.5206 84V68.75V53.5M53.5206 84C44.6804 82.3479 27 76.985 27 68.75C27 58.38 44.6804 54.2625 53.5206 53.5M53.5206 53.5L71.7275 33.8547M53.5206 53.5L71.7275 71.6471" stroke="#1F7537" stroke-width="10" stroke-linejoin="round"/>
</svg>
